<?xml version="1.0" encoding="utf-8"?>
<!-- Generator: Adobe Illustrator 27.0.1, SVG Export Plug-In . SVG Version: 6.00 Build 0)  -->
<svg version="1.1" id="Layer_1" xmlns="http://www.w3.org/2000/svg" xmlns:xlink="http://www.w3.org/1999/xlink" x="0px" y="0px"
	 viewBox="0 0 1132 506" style="enable-background:new 0 0 1132 506;" xml:space="preserve">
<style type="text/css">
	.st0{clip-path:url(#SVGID_00000008853898636220076830000010455054991041387173_);fill:#00ADD4;enable-background:new    ;}
	.st1{clip-path:url(#SVGID_00000008853898636220076830000010455054991041387173_);fill:none;}
	.st2{fill:#0F6888;enable-background:new    ;}
	.st3{fill:#FFFFFF;}
	.st4{fill:#00ADD4;enable-background:new    ;}
</style>
<g>
	<defs>
		<path id="SVGID_1_" d="M350.7,72.1c0,0-177.7,8.3-330.6,137.8l73.6,60l-6.7,6.7l-81.4-4.4c0,0,48.9,85.9,235.4,154.7
			c0,0,45.9,17.8,111,22.2c0,0,50.3,27.4,108.8,27.4c0,0,16.3-5.9-8.9-14.1c0,0-17.2-6.8,1.6-10.9c0,0,114.2-3.3,171.5-25.4
			c0,0,74.5,57.7,172.3,80.6c0,0,23.3,5.3-11-17.2c-34.4-22.5-70-71.2-70-71.2s-4.5-18.8,8.2-26.2c0,0,151.4-73.3,205-79.4l31-2.7
			c0,0,104.5,176.6,165.4,185.6c0,0,7.9,6.7-10.6-25c-18.1-30.9-27.1-162.3-27.1-162.3l-1.2-36.9c-0.6-19.9,0.2-39.8,2.7-59.5
			c6-47.8,18.4-136.5,30.1-154.7c0,0,14.8-17.1-13-3.6C1083.5,65,1049.3,112,1039,127c-2.1,3-4.2,6-6.5,8.9
			c-12.3,16.2-54.2,73.3-67.1,116.5l0,0l-36.2-6.1l-117.9-56.1l-119.1-61.4c0,0-30.7-22.5-11.5-43.8C700,63.8,756.1,3.2,756.1,3.2
			s6.5-10.2-28.2,3.3c-34.8,13.5-76.5,41.7-76.5,41.7L590.7,92l-63.4-16.4c0,0-42.2-17.6-46.2-34C481.1,41.7,463.7,34,350.7,72.1z"
			/>
	</defs>
	<clipPath id="SVGID_00000175284376387592080070000003764198131460102037_">
		<use xlink:href="#SVGID_1_"  style="overflow:visible;"/>
	</clipPath>
	
		<path style="clip-path:url(#SVGID_00000175284376387592080070000003764198131460102037_);fill:#00ADD4;enable-background:new    ;" d="
		M232.8,448.6c-9.3,0-16.7-5.5-22-16.4c-5.4-10.9-8-28-8-51.1V102.5c4.6-8.5,10.2-15.1,16.9-19.8c6.7-4.7,13.5-7,20.5-7
		c4.8,0,9.6,1.4,14.2,4.3c4.6,2.8,8.7,7.2,12.3,13c3.6,5.8,6.5,13.1,8.6,22.1s3.2,19.4,3.2,31.3v155.8c-2.2,0.4-4.5,1.3-6.9,2.8
		c-2.5,1.5-4.8,3.4-6.9,5.7c-2.1,2.3-3.9,4.8-5.3,7.5c-1.4,2.8-2.1,5.6-2.1,8.4c0,2.1,0.2,3.8,0.7,5c0.5,1.2,1.1,2.3,1.8,3.3
		c4.8-8.9,10.4-15.1,16.6-18.5c6.2-3.4,13.4-5.1,21.5-5.1h30.7c1.3,4.9,2.5,10.1,3.5,15.5c1,5.4,1.9,10.9,2.7,16.5
		c0.7,5.6,1.3,11.2,1.8,16.7c0.4,5.5,0.6,10.6,0.6,15.4c0,6.8-0.2,13.8-0.7,20.9c-0.5,7.1-1.1,13.9-2,20.4
		c-0.9,6.5-1.9,12.4-3.1,17.9c-1.2,5.5-2.6,10.2-4.1,14H232.8z"/>
	
		<path style="clip-path:url(#SVGID_00000175284376387592080070000003764198131460102037_);fill:#00ADD4;enable-background:new    ;" d="
		M437,70.4c4.7-0.4,13.1-0.5,19.6-0.5c4.5,0,7.8-0.6,16.4,1.2c7.1,1.5,7.7,11.1,9.9,20.7c2.1,9.6,3.2,20.8,3.2,33.7v170.3
		c0,26.3-1.8,49.6-5.3,69.8c-3.5,20.2-8.5,37.2-15,50.8c-6.5,13.7-12.1,18.9-21.3,25.8c-9.1,6.9-22.9,7.6-34.2,7.6
		c-11.9,0-28-1.1-37.4-8c-9.4-6.9-10.5-11.7-16.9-25.3c-6.5-13.6-11.4-30.5-14.8-50.7c-3.4-20.2-5.1-43.6-5.1-70.1l-0.3-222.9
		c4.1-7.8,9.4-10,15.5-15.7c6-5.7-18.9,14.1-11.6,14.1c0,0,17,1.4,26.6,0.7c5.5-0.4,31-1.8,32.1,0.9c3,7.1,4.8,12,6.5,22.6
		c1.8,10.6,2.6,23.2,2.6,37.7v178.5c0.9,1.6,1.9,2.5,3.2,2.5c1.2,0,2.1-0.7,2.7-2.1c0.6-1.4,0.9-4.4,0.9-8.9V132.9
		c0-6.7-0.1-12.7-0.2-17.8c-0.1-5.1-0.3-9.7-0.6-13.8c-0.3-4.1-0.7-7.9-1.2-11.3c-0.5-3.5-1.3-14-2-17.5c10.3-1.1,1.5-0.3,10.3-1.1
		C428.8,70.8,428.7,71,437,70.4z"/>
	
		<path style="clip-path:url(#SVGID_00000175284376387592080070000003764198131460102037_);fill:#00ADD4;enable-background:new    ;" d="
		M609.7,145.9c1,3.5,1.9,7.4,2.8,11.7c0.8,4.3,1.5,8.7,2.1,13.3c0.5,4.6,1,9.2,1.3,13.8c0.3,4.6,0.5,8.9,0.5,12.9
		c0,17.2-1.5,30.1-4.6,38.4c-3.1,8.4-7.3,12.6-12.6,12.6h-46.2c-2.1,0.9-4.2,2.4-4.2,7.3c0,0.3,0,1,0,2c0,1,0.1,1.7,0.2,2h54.8
		c0.7,2.5,1.3,5.5,2,8.9c0.6,3.4,1.1,7,1.5,10.8c0.4,3.8,0.8,7.6,1,11.6c0.3,3.9,0.4,7.7,0.4,11.2c0,10-0.5,19.1-1.4,27
		c-0.9,8-2.1,14.5-3.7,19.7h-24.9c-6.5,0-11.9,0.4-16.1,1.1c-4.2,0.8-7.6,1.7-10,2.9c-2.4,1.2-4.2,2.5-5.2,3.9
		c-1,1.4-1.5,2.9-1.5,4.4c0,1.3,0.1,2.6,0.3,3.8c0.2,1.2,0.6,2.2,1.3,3c1.9-1.3,3.9-2.5,5.8-3.5c2-1,4.2-1.8,6.7-2.4
		c2.4-0.6,5.2-1,8.2-1.4c3-0.3,6.5-0.5,10.5-0.5h32.2c0.8,2.7,1.7,5.6,2.5,8.9c0.8,3.3,1.6,7,2.2,11.3c0.6,4.3,1.2,9.2,1.6,14.7
		c0.4,5.5,0.6,11.9,0.6,19.1c0,4.5-0.2,9.3-0.5,14.4c-0.3,5.1-0.8,10.2-1.4,15.2c-0.6,5-1.4,9.8-2.4,14.3c-1,4.5-2.2,8.5-3.6,11.8
		h-85.9c-4.5,0-8.7-1.2-12.6-3.6c-3.9-2.4-7.3-6.2-10.2-11.3c-2.9-5.1-5.2-11.6-6.9-19.3c-1.7-7.8-2.5-17.1-2.5-28V169
		c0-8,4.2-13.9,12.7-17.6c8.5-3.7,21.4-5.5,38.9-5.5H609.7z"/>
	
		<path style="clip-path:url(#SVGID_00000175284376387592080070000003764198131460102037_);fill:#00ADD4;enable-background:new    ;" d="
		M695.1,398.3c0,1.4-2.1,2.4-3.4,3c-12.6,6-12.5,6-23.4,10.1c-7.9,3-8.8,2.8-18.1,6.2c-4.3,1.6-13.9,4.1-18.2,1.7c-4.3-2.4,0,0,0,0
		c-3.2-4.9-4-8.1-6-15.6c-1.9-7.5-2.9-16.3-2.9-26.4l0.1-227.5c0-3.4-2-6.5-5.2-7.8L584,127.7c-2.5-1-4.3-3.2-5-5.8
		c-1.6-6.4-1.4-6-1.7-16.9c-0.3-10.9,3.9-18.4,3.9-30.6c0-9.2,5.5,18.4,6.1,10.9c0.7-7.5,0.9-6.7,1.9-12.5
		c1.1-5.9,2.3-11.1,3.6-15.5c0.6-2,1.2-3.8,1.8-5.5c1.2-3.4-12.1,39.2-8.5,39.2l106,38c10.2,2.3,22.2,3.4,23.1,7.3
		c1.6,7.3,13.5-67.8,14.7-58.2c1.6,12.8,2.4,25.6,2.4,38.5c0,12.1-0.6,22.5-1.8,31.2c-1.2,8.7-2.8,15.7-4.9,21.2
		c-2.1,5.5-0.7,2.5-2.1,5.5c-1.6,3.5-10.1-1.6-15.2-3.1l-24.7-9.5c-5.6-2.1-6.7-3.6-9.6,1c-0.5,0.7,2.9,1.6,5,2.3
		c1.8,0.5,6.1,2.5,10.2,3.5l4.6,1.7c4.6,2.2,3.3,6.6,3.3,11.3L695.1,398.3z"/>
	
		<path style="clip-path:url(#SVGID_00000175284376387592080070000003764198131460102037_);fill:#00ADD4;enable-background:new    ;" d="
		M796.9,185.1c3.5,1.8,12.3,7.4,15.9,9.1c3.3,1.6,4.1,2,4.1,2s4.5,1.1,5.6,5.2c1.3,5.2,0.3,16.3,0.3,23.1v90.2
		c0,13.9-1.4,26.3-4.1,37c-2.7,10.7-6.6,19.7-11.7,26.9c-5,7.2-11.1,12.7-18.3,16.4c-7.1,3.7-15.1,5.5-23.8,5.5
		c-9.3,0-17.6-1.8-24.9-5.5c-7.3-3.7-13.5-9.1-18.5-16.3s-8.9-16.1-11.5-26.8c-2.6-10.7-4-23.1-4-37.1V199
		c3.2-4.1,7.2-7.7,11.8-10.7c4.7-3,9.9-4.5,15.5-4.5c4.2,0,8,0.9,11.5,2.7c3.4,1.8,6.4,4.5,8.9,8.2c2.5,3.7,4.4,8.3,5.8,13.9
		c1.4,5.6,2.1,12.3,2.1,19.9V323c0.7,0.9,1.5,1.3,2.5,1.3c0.9,0,1.6-0.4,2.1-1.1c0.5-0.8,0.7-2.3,0.7-4.7v-90.2c0-3.6,0-6.7-0.2-9.4
		c-0.1-2.7,0.1-6.2-0.2-8.4c-0.2-2.2,0-9.2-0.4-11.1c-0.4-1.8,0.7-20.2,0.2-22c3.7-5,6.3-3.6,11.6-1.9
		C787.1,178.5,790.4,181.8,796.9,185.1z"/>
	
		<path style="clip-path:url(#SVGID_00000175284376387592080070000003764198131460102037_);fill:#00ADD4;enable-background:new    ;" d="
		M896.5,200.5c1.8-1.9,3.8-3.5,6-4.9c2.2-1.4,4.6-2.6,7-3.5c2.5-0.9,5-1.6,7.6-2.1c2.6-0.5,5.1-0.7,7.6-0.7c3.8,0,7.6,0.4,11.2,1.3
		c3.6,0.9,6.9,2.4,9.7,4.5c2.8,2.1,5.1,5,6.8,8.6c1.7,3.6,2.6,8.1,2.6,13.4v121.1c0,3.8-0.8,7.1-2.3,9.7c-1.5,2.6-3.6,4.8-6.1,6.3
		c-2.6,1.6-5.5,2.7-8.8,3.4c-3.3,0.7-6.7,1-10.3,1c-2.2,0-4.4-0.1-6.6-0.4c-2.2-0.3-4.3-0.7-6.3-1.3c-2-0.6-3.8-1.3-5.5-2
		c-1.7-0.8-3.2-1.6-4.4-2.6c-2.9-4.7-5.6-9.2-7.9-13.6c-2.4-4.3-4.5-8.5-6.5-12.5c-2-4-3.8-7.8-5.5-11.4c-1.7-3.6-5.8-16.4-7.4-19.6
		c-1.2,0.2-1.8,1.1-2.2,1.8c-0.4,0.7-0.5,1.9-0.5,2.9c0,1.3-0.1,1.1,0.4,2.3c0.5,1.2,3.9,12.7,4.8,14.5l12.8,25.8v6.8
		c-1,0.9-2.3,1.8-3.9,2.9c-1.6,1.1-3.5,2.2-5.8,3.1c-2.3,1-4.9,1.8-7.9,2.5c-3,0.7-6.4,1-10.3,1c-4.4,0-8.5-0.6-12.3-1.7
		c-3.8-1.1-7-2.8-9.7-4.9c-2.7-2.2-4.8-4.9-6.3-8.1c-1.5-3.2-2.3-7-2.3-11.3V204.8c0-2.1,0.8-4.2,2.3-6.1c1.5-1.9,3.5-3.6,6.1-4.9
		c2.6-1.4,5.6-2.4,9.1-3.3c3.5-0.8,7.2-1.2,11.2-1.2c4.5,0,8.7,0.7,12.5,2c3.8,1.4,6.7,3,8.7,5c1.5,2.4,3.1,5.2,4.9,8.5
		c1.8,3.3,3.6,6.9,5.6,10.9c2,4,4,8.2,6.2,12.7c2.1,4.5,7.9,19.6,10.2,24.3c0.7,0,1.6-1.2,2-2.1c0.4-0.8,0.7-1.9,0.7-3.2
		c0-0.9-1.3-4.6-1.9-5.9c-0.5-1.3-3.4-8.9-4-10.2l-11.1-23.8V200.5z"/>
	
		<path style="clip-path:url(#SVGID_00000175284376387592080070000003764198131460102037_);fill:#00ADD4;enable-background:new    ;" d="
		M966.9,119.6c3.8-4.6,24.9-17.7,29.6-21.5c4.7-3.8,9.6-6.9,14.8-9.4c5.2-2.5,10.5-4.4,16-5.7c5.5-1.3,11-1.8,16.6-1.7
		c7.3,0.2,16.8-29.2,23.9-26.4c7.1,2.8,49.6-12.8,55.4-7s-14.3,39.5-10.4,48.6c4,9.1-6.8,44.6-5.6,57.1l25.3,268.3
		c-4.6,11.1,11.6,69.2,3.6,76.2c-8,7-39.3-4.4-51.2-4.7c-5.3-0.1-13.9-30.4-18.5-32.4c-4.5-2-5.9-10.2-9.3-13.9
		c-3.4-3.8-6.2-8.5-8.4-14.1c-2.2-5.6-3.5-12.2-3.9-19.8l-2.2-34.7c2.9-0.1,5.8-0.7,8.7-1.9c2.9-1.2,5.5-2.6,7.9-4.3
		c2.3-1.7,4.3-3.7,5.8-6c1.5-2.2,2.3-4.5,2.4-6.8c0.1-3-0.5-5.5-1.6-7.4c-1.8,2.4-3.8,4.6-6.1,6.5c-2.3,1.9-4.7,3.5-7.2,4.8
		c-2.5,1.3-5,2.2-7.5,2.8c-2.5,0.6-4.8,0.9-7,0.8c-4-0.1-7.6-0.7-10.7-1.8c-3.1-1.1-5.8-2.5-8.1-4c-2.3-1.6-4.3-3.3-5.9-5.1
		c-1.6-1.8-3-3.6-4.1-5.4c-0.4,0.9-0.8,2-1.1,3.2c-0.3,1.2-0.5,2.6-0.5,4.1c-0.1,2.8,0.6,5.5,2,7.9c1.4,2.4,3.3,4.5,5.7,6.4
		c2.4,1.9,5.1,3.4,8.3,4.6c3.1,1.2,6.4,2.1,9.9,2.5c0.2,13.3,0.6,23.8,1.1,31.7c0.5,7.9,1.1,12.9,1.7,14.9
		c-0.9,3.2-2.7,6.6-5.3,10.2c-2.6,3.6-5.8,7-9.5,10.1c-3.8,3.1-8.1,5.7-12.9,7.6c-4.8,2-9.9,2.9-15.2,2.7c-6.7-0.2-12.9-1.8-18.7-5
		c-5.8-3.2-10.9-7.5-15.2-13c-4.3-5.5-7.6-12.1-10.1-19.8c-2.4-7.7-3.5-16.3-3.3-25.8c0.1-2.1,0.2-4.2,0.3-6.4
		c0.1-2.2,16.3-7.3,16.7-9.6L966.9,119.6z M1046.3,258.5c-0.7-11.4-1.3-20.5-1.8-27.3c-0.4-6.8-0.9-12-1.4-15.5
		c-0.5-3.5-1.1-5.8-1.8-6.9c-0.7-1.1-1.5-1.6-2.6-1.6c-0.7,0-1.3,0.2-1.8,0.5c-0.6,0.4-12.4,31.9-12.8,32.3l0,0
		c0.4,0.8,16,27.6,16.7,28c0.7,0.4,1.3,0.6,1.9,0.6c0.8,0,1.6-0.2,2.4-0.6c0.8-0.5,1.3-0.9,1.7-1.2L1046.3,258.5z"/>
	<path style="clip-path:url(#SVGID_00000175284376387592080070000003764198131460102037_);fill:none;" d="M96.7,195.6
		c-0.5,0-1.2,0.1-1.9,0.2c-0.8,0.2-1.3,0.4-1.8,0.7c0.1,1.2,0.2,2.5,0.2,3.9c0,1.4,0,2.9,0,4.4v21.8c0.3,0.3,0.8,0.5,1.5,0.6
		c0.7,0.1,1.2,0.1,1.4,0.1c2.6,0,4.4-1.2,5.5-3.5c1.1-2.3,1.6-6.1,1.6-11.4v-1.4c0-5.4-0.5-9.3-1.4-11.8
		C100.8,196.9,99.2,195.6,96.7,195.6z"/>
	<path style="clip-path:url(#SVGID_00000175284376387592080070000003764198131460102037_);fill:none;" d="M96.7,280.7
		c-0.5,0-1.2,0.1-1.9,0.2c-0.8,0.2-1.3,0.4-1.8,0.7c0.1,1.2,0.2,2.5,0.2,3.9c0,1.4,0,2.9,0,4.4v24.1c0.3,0.3,0.8,0.5,1.5,0.6
		c0.7,0.1,1.2,0.1,1.4,0.1c2.6,0,4.4-1,5.5-2.9c1.1-1.9,1.6-5.5,1.6-10.8v-4.4c0-5.4-0.5-9.4-1.4-12.1
		C100.8,282,99.2,280.7,96.7,280.7z"/>
	
		<path style="clip-path:url(#SVGID_00000175284376387592080070000003764198131460102037_);fill:#00ADD4;enable-background:new    ;" d="
		M198,288c-1.9-9-4.9-17.1-8.9-24.1c-3.3-5.8-7.3-10.7-12-14.7c-6.2,6.3-14.4,10.1-23.5,10.1c-19.2,0-34.7-17.1-34.7-38.2
		s15.5-38.2,34.7-38.2c15.9,0,29.3,11.8,33.4,27.9c0.6-2.9,1.1-5.8,1.5-8.8c0.5-4.6,0.8-9.1,0.8-13.6c0-11.7-1.7-23-5.2-33.7
		c-3.5-10.7-9-20.2-16.6-28.4c-7.6-8.2-17.4-14.7-29.4-19.6c-12-4.9-26.6-7.3-43.6-7.3c-13.8,0-26.3,1.3-37.3,3.9
		c-11,2.6-20.3,5.9-27.9,9.7c-7.6,3.9-13.4,8-17.5,12.4c-4,4.4-6,8.4-6,11.9V350c0,17.1,2.6,29.9,7.8,38.1
		c5.2,8.3,13.5,13.5,24.9,15.6c6.4,1.2,14.1,2.1,23,2.7c8.9,0.5,19.5,0.8,31.7,0.8c17.1,0,32.3-1.6,45.7-4.9
		c13.4-3.2,24.6-8.5,33.8-15.6c9.2-7.2,16.2-16.6,21-28.1c4.8-11.6,7.2-25.7,7.2-42.4C200.9,306.4,199.9,297,198,288z M103.1,301.1
		c0,5.3-0.5,8.8-1.6,10.8c-1.1,1.9-2.9,2.9-5.5,2.9c-0.2,0-0.7,0-1.4-0.1c-0.7-0.1-1.2-0.3-1.5-0.6V290c0-1.5,0-3,0-4.4
		c0-1.4-0.1-2.7-0.2-3.9c0.4-0.3,1-0.5,1.8-0.7c0.8-0.2,1.4-0.2,1.9-0.2c2.5,0,4.2,1.3,5.1,3.9c0.9,2.6,1.4,6.6,1.4,12.1V301.1z
		 M103.1,212.6c0,5.3-0.5,9-1.6,11.4c-1.1,2.3-2.9,3.5-5.5,3.5c-0.2,0-0.7,0-1.4-0.1c-0.7-0.1-1.2-0.3-1.5-0.6v-21.8
		c0-1.5,0-3,0-4.4c0-1.4-0.1-2.7-0.2-3.9c0.4-0.3,1-0.5,1.8-0.7c0.8-0.2,1.4-0.2,1.9-0.2c2.5,0,4.2,1.2,5.1,3.7
		c0.9,2.5,1.4,6.4,1.4,11.8V212.6z"/>
</g>
<path class="st2" d="M488.1,72.9c0,0,11.8,54.6,7.8,68.3c0,0,37.3-8.4,77.6-6c0,0-7.6-27.4-4.6-44.7
	C568.8,90.6,528.5,70.4,488.1,72.9z"/>
<path class="st2" d="M276.2,84.5c0,0,13.6,28,12.9,61.4c-0.7,33.4,0.6,153.2,0.6,153.2s18.1-6.1,35.1,0l-0.2-222.8
	C324.6,76.2,282,81.2,276.2,84.5z"/>
<ellipse class="st3" cx="153.3" cy="220.8" rx="34.4" ry="37.2"/>
<circle class="st2" cx="153.3" cy="220.8" r="20.7"/>
<path class="st2" d="M352.1,455.7c0,0,67.5,6.1,101.5,2.4c0,0-9.4,11.1,6.6,15.6c16,4.5,4.5,9.4,4.5,9.4s-50.9,0.4-80.9-9.9
	C354,463.1,352.1,455.7,352.1,455.7z"/>
<path class="st2" d="M629.9,430.6c15.2-3.9,54.3-14.9,77.7-30.9c2-1.4,4.8,0.1,4.7,2.6c0,5.8,2.3,14.4,5.7,19.2
	c0,0,7.4,16.5,45.9,43.7l43.6,32.1c2.4,1.8,1.2,5.6-1.8,5.6c-6.8-0.1-20.5-2.5-48-12.1c-51.3-17.9-89.1-26.3-129-54.8
	C626.7,434.5,627.3,431.2,629.9,430.6z"/>
<path class="st2" d="M596.7,87.2c15.3,3.7,54.5,14.2,78.1,29.9c2.1,1.4,4.8-0.2,4.7-2.6c-0.1-5.8,2.1-14.4,5.5-19.3
	c0,0,7.2-16.6,45.4-44.3l43.2-32.6c2.4-1.8,1.1-5.6-1.9-5.6c-6.8,0.2-20.5,2.8-47.8,12.7c-51.1,18.5-88.8,27.4-128.3,56.4
	C593.5,83.3,594.2,86.6,596.7,87.2z"/>
<path class="st2" d="M268.9,75.7c30.5-6.1,104.3-18.9,156.8-12.1c3.9,0.5,6-4.4,3-6.9C416,46.4,397.4,28.4,385.9,5.1
	c-0.8-1.6-2.6-2.5-4.4-2.1c-12.4,3.1-60.6,17.4-116,65.9C262.6,71.5,265,76.5,268.9,75.7z"/>
<path class="st2" d="M758,154.2l13.1,8.1c1.8,1.1,4.1,0.2,4.7-1.8l5.2-17.6c0.8-2.7-2-5.1-4.5-3.8l-18.4,9.5
	C756,149.8,755.9,152.9,758,154.2z"/>
<path class="st2" d="M796.5,175.9l13.1,8.1c1.8,1.1,4.1,0.2,4.7-1.8l5.2-17.6c0.8-2.7-2-5.1-4.5-3.8l-18.4,9.5
	C794.5,171.5,794.4,174.6,796.5,175.9z"/>
<path class="st2" d="M838.1,193.9l13.1,8.1c1.8,1.1,4.1,0.2,4.7-1.8l5.2-17.6c0.8-2.7-2-5.1-4.5-3.8l-18.4,9.5
	C836.1,189.5,836,192.6,838.1,193.9z"/>
<path class="st2" d="M876.7,212.5l13.1,8.1c1.8,1.1,4.1,0.2,4.7-1.8l5.2-17.6c0.8-2.7-2-5.1-4.5-3.8l-18.4,9.5
	C874.7,208,874.6,211.2,876.7,212.5z"/>
<path class="st2" d="M913.6,231.3l14.1,6.3c1.9,0.9,4.1-0.3,4.5-2.4l2.9-18.2c0.4-2.8-2.7-4.7-5-3.1l-16.9,11.9
	C911,227.2,911.3,230.3,913.6,231.3z"/>
<path class="st2" d="M758.7,384.3l13.8-6.9c1.9-0.9,4.2,0.2,4.6,2.2l3.6,18c0.6,2.8-2.5,4.8-4.9,3.3l-17.4-11.1
	C756.3,388.5,756.5,385.4,758.7,384.3z"/>
<path class="st2" d="M797.2,366.2l13.8-6.9c1.9-0.9,4.2,0.2,4.6,2.2l3.6,18c0.6,2.8-2.5,4.8-4.9,3.3L797,371.7
	C794.9,370.4,795,367.3,797.2,366.2z"/>
<path class="st2" d="M838.1,351.4l13.8-6.9c1.9-0.9,4.2,0.2,4.6,2.2l3.6,18c0.6,2.8-2.5,4.8-4.9,3.3l-17.4-11.1
	C835.7,355.6,835.9,352.5,838.1,351.4z"/>
<path class="st2" d="M877.4,337.1l13.8-6.9c1.9-0.9,4.2,0.2,4.6,2.2l3.6,18c0.6,2.8-2.5,4.8-4.9,3.3l-17.4-11.1
	C875,341.4,875.2,338.3,877.4,337.1z"/>
<path class="st2" d="M915,321.6l15-3.7c2-0.5,4,1.1,4,3.2l-0.5,18.4c-0.1,2.8-3.5,4.2-5.5,2.2l-14.5-14.7
	C911.8,325.1,912.6,322.2,915,321.6z"/>
<polygon class="st4" points="697.4,175.7 700,160.5 677,144 668.6,162.8 "/>
</svg>
