<svg width="1728" height="1117" viewBox="0 0 1728 1117" fill="none" xmlns="http://www.w3.org/2000/svg">
<g id="MacBook Pro 16&#34; - 1">
<rect width="1728" height="1117" fill="black"/>
<g id="anticipations">
<g id="a3">
<path id="Vector" d="M269.325 378.235H238.345L210.82 538.213H233.775L238.345 518.636H263.586L269.325 537.04H295.682L269.325 378.235ZM242.171 496.658L252.161 426.458L262.151 496.658H242.171ZM267.89 554.056H236.911L209.385 714.034H232.341L236.911 694.457H262.151L267.89 712.861H294.247L267.89 554.056V554.056ZM240.737 672.479L250.727 602.279L260.717 672.479H240.737Z" fill="white"/>
</g>
<g id="a4">
<path id="Vector_2" d="M959.703 378.235H928.723L901.197 538.213H924.153L928.723 518.636H953.964L959.703 537.04H986.06L959.703 378.235ZM932.549 496.658L942.539 426.458L952.529 496.658H932.549ZM958.268 554.056H927.289L899.763 714.034H922.719L927.289 694.457H952.529L958.268 712.861H984.625L958.268 554.056V554.056ZM931.115 672.479L941.105 602.279L951.095 672.479H931.115Z" fill="white"/>
</g>
<g id="t3">
<path id="Vector_3" d="M438.704 371.847L438.652 398.2H471.425V535.711H497.83V398.2H527.91V371.795L438.704 371.847ZM440.257 555.696L440.205 581.997H472.978V719.56H499.383V581.997H529.463V555.592L440.257 555.696Z" fill="white"/>
</g>
<g id="t4">
<path id="Vector_4" d="M1015.74 378.287L1015.68 404.64H1048.46V542.151H1074.86V404.64H1104.94V378.235L1015.74 378.287ZM1017.29 562.136L1017.24 588.437H1050.01V726H1076.42V588.437H1106.5V562.032L1017.29 562.136Z" fill="white"/>
</g>
<g id="n">
<path id="Vector_5" d="M325.786 532.827L325.306 371.795H349.674L382.361 460.842V372.595H407.475V533.84H381.614L349.674 447.139V532.987L325.786 532.827ZM327.066 718.547L326.639 557.515H350.954L383.694 646.509V558.261H408.755V719.56H382.894L350.954 632.805V718.653L327.066 718.547Z" fill="white"/>
</g>
<g id="n2">
<path id="Vector_6" d="M1307.26 539.267L1306.78 378.235H1331.14L1363.83 467.282V379.035H1388.95V540.28H1363.08L1331.14 453.579V539.427L1307.26 539.267ZM1308.54 724.987L1308.11 563.955H1332.42L1365.16 652.949V564.701H1390.23V726H1364.36L1332.42 639.245V725.094L1308.54 724.987Z" fill="white"/>
</g>
<g id="i">
<path id="Vector_7" d="M559.726 371.795V535.704H588.304V371.795H559.726ZM560.369 555.65V719.56H588.947V555.65H560.369Z" fill="white"/>
</g>
<g id="i3">
<path id="Vector_8" d="M1136.76 378.235V542.145H1165.34V378.235H1136.76ZM1137.4 562.09V726H1165.98V562.09H1137.4Z" fill="white"/>
</g>
<g id="i2">
<path id="Vector_9" d="M728.456 371.795V535.704H757.035V371.795H728.456ZM729.1 555.65V719.56H757.678V555.65H729.1Z" fill="white"/>
</g>
<g id="c">
<path id="Vector_10" d="M672.397 605.336H696.499C696.499 605.336 706.991 558.209 654.079 558.72C654.759 558.89 618.975 555.771 618.975 596.943V677.814C618.975 687.284 621.356 696.698 626.631 704.525C632.302 713.031 639.731 719.156 656.518 719.496C656.518 719.496 697.009 723.126 695.422 675.488H673.418C673.418 675.488 674.552 698.23 655.61 698.003C640.808 697.833 641.999 672.369 641.999 672.369V596.943C641.999 596.943 644.381 580.327 660.828 583.332C674.041 585.771 672.397 605.336 672.397 605.336V605.336ZM673.701 418.416H697.803C697.803 418.416 708.295 371.289 655.383 371.799C656.064 371.969 620.279 368.85 620.279 410.023V490.893C620.279 500.364 622.661 509.778 627.935 517.604C633.606 526.111 641.035 532.235 657.822 532.576C657.822 532.576 698.314 536.205 696.726 488.568H674.722C674.722 488.568 675.856 511.309 656.915 511.082C642.113 510.912 643.304 485.449 643.304 485.449V410.079C643.304 410.079 645.686 393.463 662.132 396.468C675.402 398.85 673.701 418.416 673.701 418.416Z" fill="white"/>
</g>
<g id="p">
<path id="Vector_11" d="M816.022 372.143C816.022 372.143 807.793 372.909 799.768 379.81C792.203 386.301 788.216 396.115 788.216 406.133V536.983H813.211V475.903C813.211 475.903 843.419 493.741 861.871 469.718C867.237 462.766 869.691 453.975 869.691 445.183V410.12C869.742 410.12 875.313 367.542 816.022 372.143V372.143ZM846.537 445.081C846.537 445.081 846.485 455.048 830.998 456.991C823.229 457.962 818.526 454.435 815.766 450.653C813.313 447.279 812.137 443.139 812.137 438.948L811.933 415.487C811.882 409.66 813.977 403.935 818.22 399.948C821.082 397.29 825.018 395.246 830.18 395.655C830.334 395.655 830.436 395.655 830.589 395.706C839.79 396.626 846.537 404.855 846.537 414.107V445.081V445.081ZM815.511 554.719C815.511 554.719 807.281 555.486 799.257 562.386C791.692 568.878 787.705 578.692 787.705 588.71V719.56H812.699V658.428C812.699 658.428 842.907 676.267 861.359 652.244C866.726 645.292 869.18 636.501 869.18 627.709V592.645C869.231 592.697 874.802 550.068 815.511 554.719V554.719ZM846.077 627.658C846.077 627.658 846.025 637.625 830.538 639.568C822.769 640.539 818.066 637.012 815.306 633.229C812.853 629.856 811.677 625.716 811.677 621.525L811.473 598.063C811.422 592.237 813.517 586.512 817.76 582.525C820.622 579.867 824.558 577.823 829.72 578.232C829.874 578.232 829.976 578.232 830.129 578.283C839.33 579.203 846.077 587.432 846.077 596.683V627.658V627.658Z" fill="white"/>
</g>
<g id="o">
<path id="Vector_12" d="M1270.39 581.611C1264.79 573.808 1254.72 565.842 1236.96 565.143C1219.15 564.443 1209.3 572.193 1203.86 580.105C1199.45 586.563 1197.46 594.421 1197.46 602.225V687.207C1197.46 695.441 1199.45 703.676 1203.86 710.565C1209.09 718.691 1218.34 726.657 1234.43 725.957C1234.43 725.957 1273.72 724.612 1276.09 694.365L1277.01 603.947C1277.17 596.035 1275.07 588.07 1270.39 581.611ZM1235.89 702.976C1219.04 703.03 1220.28 682.793 1220.28 682.793L1220.76 607.714C1220.76 607.714 1219.74 586.617 1238.79 588.716C1238.79 588.716 1252.52 587.532 1253.27 607.015V682.793C1253.22 682.793 1254.67 702.976 1235.89 702.976V702.976ZM1268.93 394.748C1263.34 386.944 1253.27 378.979 1235.51 378.279C1217.7 377.579 1207.85 385.33 1202.41 393.241C1198 399.699 1196.01 407.557 1196.01 415.361V500.397C1196.01 508.631 1198 516.866 1202.41 523.755C1207.63 531.882 1216.89 539.847 1232.98 539.147C1232.98 539.147 1272.27 537.802 1274.64 507.555L1275.55 417.137C1275.66 409.172 1273.56 401.26 1268.93 394.748V394.748ZM1234.43 516.166C1217.59 516.22 1218.83 495.984 1218.83 495.984L1219.31 420.905C1219.31 420.905 1218.29 399.807 1237.34 401.906C1237.34 401.906 1251.06 400.722 1251.82 420.205V495.984C1251.76 495.93 1253.16 516.112 1234.43 516.166V516.166Z" fill="white"/>
</g>
<g id="s">
<path id="Vector_13" d="M1421.91 493.303L1446.64 493.194C1446.64 493.194 1444.42 511.92 1455.57 518.252C1464.88 523.555 1477.38 517.873 1479.39 507.32C1480.41 502.016 1479.17 495.089 1472.19 486.538C1458.39 469.652 1440.31 452.172 1433.44 445.677C1430.68 443.08 1428.3 440.157 1426.57 436.802C1423.37 430.686 1420.02 420.566 1423.53 408.335C1427.76 393.235 1440.31 381.546 1455.74 378.84C1464.34 377.324 1474.89 378.298 1485.77 385.929C1485.77 385.929 1505.09 402.382 1497.35 424.625L1477.06 423.651C1477.06 423.651 1479.82 410.391 1470.35 403.951C1462.72 398.756 1451.68 401.57 1447.67 409.904C1444.64 416.182 1444.64 425.599 1456.76 438.209C1471 453.038 1482.9 465.485 1490.26 473.224C1498.92 482.316 1503.04 492.87 1502.93 505.425C1502.87 516.791 1500.11 531.565 1483.77 538.763C1450.49 553.538 1431.54 532.972 1431.54 532.972C1431.54 532.972 1420.99 520.254 1421.91 493.303V493.303ZM1420.18 675.144L1444.91 675.036C1444.91 675.036 1442.69 693.762 1453.84 700.094C1463.15 705.397 1475.65 699.715 1477.65 689.161C1478.68 683.858 1477.44 676.93 1470.46 668.38C1456.66 651.494 1438.58 634.014 1431.71 627.519C1428.95 624.921 1426.57 621.999 1424.83 618.644C1421.64 612.528 1418.28 602.408 1421.8 590.177C1426.08 575.131 1438.63 563.442 1454 560.736C1462.61 559.22 1473.16 560.194 1484.04 567.825C1484.04 567.825 1503.36 584.278 1495.62 606.521L1475.33 605.547C1475.33 605.547 1478.09 592.287 1468.62 585.847C1460.99 580.652 1449.94 583.466 1445.94 591.8C1442.91 598.078 1442.91 607.495 1455.03 620.105C1469.27 634.934 1481.17 647.381 1488.53 655.12C1497.19 664.212 1501.3 674.766 1501.2 687.321C1501.14 698.686 1498.38 713.461 1482.04 720.659C1448.7 735.434 1429.81 714.868 1429.81 714.868C1429.81 714.868 1419.26 702.096 1420.18 675.144V675.144Z" fill="white"/>
</g>
</g>
<g id="lafayette">
<path id="a" d="M385.247 173.44H354.267L326.741 333.418H349.697L354.267 313.841H379.508L385.247 332.245H411.604L385.247 173.44ZM358.093 291.863L368.083 221.663L378.073 291.863H358.093ZM383.812 349.261H352.832L325.306 509.239H348.262L352.832 489.662H378.073L383.812 508.066H410.169L383.812 349.261V349.261ZM356.658 467.685L366.648 397.484L376.638 467.685H356.658Z" fill="white"/>
<path id="a2" d="M592.618 173.44H561.638L534.112 333.418H557.068L561.638 313.841H586.879L592.618 332.245H618.975L592.618 173.44ZM565.464 291.863L575.454 221.663L585.444 291.863H565.464ZM591.183 349.261H560.203L532.677 509.239H555.633L560.203 489.662H585.444L591.183 508.066H617.54L591.183 349.261V349.261ZM564.029 467.685L574.019 397.484L584.009 467.685H564.029Z" fill="white"/>
<path id="l" d="M209.385 173.44V331.538H295.055V306.017H240.304V173.44C240.304 173.44 211.204 174.89 209.385 173.44ZM210.012 350.227V508.325H295.682V482.803H240.931V350.227C240.931 350.227 211.768 351.676 210.012 350.227Z" fill="white"/>
<path id="f" d="M441.228 332.625V167.269L502.686 167L502.525 193.324H468.089V221.85H496.616V243.661H468.089V332.464C468.089 332.41 441.121 332.679 441.228 332.625ZM441.497 514.743V349.386L502.955 349.118L502.794 375.442H468.358V403.968H496.884V425.779H468.358V514.582C468.358 514.528 441.443 514.85 441.497 514.743Z" fill="white"/>
<path id="e" d="M749.579 351.591V514.765H811.71V494.09H776.085V426.976H804.288V405.452H776.085V377.302H810.067L810.226 351.326L749.579 351.591ZM747.776 167.318V330.492H809.855V309.764H774.283V242.702H802.433V221.126H774.283V192.976H808.211L808.37 167L747.776 167.318Z" fill="white"/>
<path id="e2" d="M1085.75 351.591V514.765H1147.88V494.09H1112.26V426.976H1140.46V405.452H1112.26V377.302H1146.24L1146.4 351.326L1085.75 351.591ZM1083.95 167.318V330.492H1146.03V309.764H1110.46V242.702H1138.61V221.126H1110.46V192.976H1144.38L1144.54 167L1083.95 167.318Z" fill="white"/>
<path id="t" d="M841.854 167.052L841.802 193.405H874.575V330.916H900.979V193.405H931.06V167L841.854 167.052ZM843.407 350.901L843.355 377.202H876.128V514.765H902.533V377.202H932.613V350.797L843.407 350.901Z" fill="white"/>
<path id="t2" d="M962.927 167.052L962.876 193.405H995.648V330.916H1022.05V193.405H1052.13V167L962.927 167.052ZM964.481 350.901L964.429 377.202H997.202V514.765H1023.61V377.202H1053.69V350.797L964.481 350.901Z" fill="white"/>
<path id="y" d="M627.991 167H657.08L672.377 204.816L689.078 167H716.712L685.467 235.41V327.742H659.989V233.203L627.991 167ZM628.994 354.023H658.083L673.33 391.889L690.081 354.023H717.716L686.42 422.432V514.765H660.992V420.225L628.994 354.023Z" fill="white"/>
</g>
<rect id="a3 mask" x="175" y="441" width="154" height="197" fill="#D9D9D9"/>
<rect id="n mask" x="289" y="441" width="155" height="197" fill="#D9D9D9"/>
<rect id="t3 mask" x="406" y="441" width="155" height="197" fill="#D9D9D9"/>
<rect id="i mask" x="497" y="441" width="154" height="197" fill="#D9D9D9"/>
<rect id="c mask" x="582" y="441" width="154" height="197" fill="#D9D9D9"/>
<rect id="i2 mask" x="665" y="441" width="155" height="197" fill="#D9D9D9"/>
<rect id="p mask" x="752" y="441" width="154" height="197" fill="#D9D9D9"/>
<rect id="a4 mask" x="865" y="441" width="155" height="197" fill="#D9D9D9"/>
<rect id="t4 mask" x="991" y="441" width="155" height="197" fill="#D9D9D9"/>
<rect id="i3 mask" x="1074" y="441" width="154" height="197" fill="#D9D9D9"/>
<rect id="o mask" x="1159" y="441" width="154" height="197" fill="#D9D9D9"/>
<rect id="n mask_2" x="1271" y="441" width="154" height="197" fill="#D9D9D9"/>
<rect id="s mask" x="1384" y="441" width="155" height="197" fill="#D9D9D9"/>
<rect id="l mask" x="154" y="207" width="155" height="197" fill="#D9D9D9"/>
<rect id="a mask" x="291" y="207" width="154" height="197" fill="#D9D9D9"/>
<rect id="f mask" x="395" y="207" width="154" height="197" fill="#D9D9D9"/>
<rect id="a2 mask" x="498" y="207" width="154" height="197" fill="#D9D9D9"/>
<rect id="y mask" x="596" y="207" width="154" height="197" fill="#D9D9D9"/>
<rect id="e mask" x="681" y="207" width="154" height="197" fill="#D9D9D9"/>
<rect id="t mask" x="810" y="207" width="154" height="197" fill="#D9D9D9"/>
<rect id="t2 mask" x="931" y="207" width="154" height="197" fill="#D9D9D9"/>
<rect id="e2 mask" x="1039" y="207" width="154" height="197" fill="#D9D9D9"/>
</g>
</svg>
